# Blender 5.1.1
# www.blender.org
mtllib rock.mtl
o boulder
v -0.529166 0.465626 0.185426
v -0.424495 0.590044 -0.049696
v -0.282566 0.476087 -0.493501
v -0.263514 0.187692 -0.673837
v -0.270262 0.100660 -0.693616
v -0.293131 -0.012440 -0.680235
v -0.300816 0.535223 -0.416766
v -0.340810 0.574762 -0.288421
v -0.570533 0.362279 0.254393
v -0.636908 0.088883 0.317489
v 0.026635 0.594468 -0.437712
v -0.129739 0.600186 -0.386546
v -0.320841 0.612219 -0.210975
v 0.134049 0.593453 -0.407576
v 0.371372 0.597759 -0.194207
v -0.345811 0.626285 0.091989
v -0.383000 0.621142 -0.041596
v 0.020491 -0.082285 -0.733481
v 0.162090 0.566497 -0.426411
v -0.067476 0.407910 -0.636873
v -0.076385 0.369489 -0.655421
v -0.045020 0.061455 -0.732737
v -0.024295 0.455411 -0.591600
v -0.546439 0.016213 0.497335
v -0.540403 0.404797 0.279375
v -0.562255 0.063036 0.465621
v 0.078833 0.607842 0.368454
v 0.239350 0.393310 0.542768
v -0.505762 -0.014627 0.528193
v -0.511535 0.467200 0.253564
v -0.447683 0.518760 0.245415
v -0.176307 0.630572 0.271532
v 0.039308 0.629043 0.343432
v 0.176738 0.144183 0.663153
v 0.246543 0.355085 0.566774
v -0.303609 -0.666718 0.022277
v 0.077723 -0.624521 0.352343
v 0.025829 -0.686808 0.237816
v -0.447211 -0.169498 0.529650
v -0.605566 -0.122063 0.381279
v -0.648391 -0.032373 0.295703
v -0.442724 -0.574965 -0.060497
v -0.566172 -0.215277 0.386531
v -0.429964 -0.593661 0.020059
v 0.013676 -0.090743 -0.731522
v -0.220866 -0.203591 -0.678437
v 0.025416 -0.087413 -0.731710
v 0.168040 -0.590225 0.368297
v 0.314490 -0.617513 0.189044
v -0.260578 -0.660788 -0.195640
v -0.361216 -0.247202 -0.595318
v -0.424239 -0.569080 -0.177797
v -0.512163 -0.438625 -0.261549
v -0.490718 -0.484456 -0.225011
v -0.285823 -0.265302 -0.631298
v -0.253691 -0.659560 -0.202240
v -0.268365 -0.684079 0.001486
v 0.276123 -0.703053 -0.004141
v -0.259311 -0.661705 -0.194309
v 0.212521 -0.706616 0.046368
v -0.070481 -0.707512 0.142084
v -0.189368 -0.694965 0.070822
v 0.268195 -0.704349 0.009502
v -0.251186 -0.661387 -0.199577
v 0.276102 -0.703021 -0.004406
v 0.299604 -0.403447 0.480291
v 0.434034 0.567156 0.041799
v 0.248716 0.578273 0.338949
v 0.341704 0.611675 0.103095
v 0.523128 0.438184 0.174070
v 0.360320 0.460921 0.406261
v 0.326205 0.484987 0.411960
v 0.248754 0.620086 0.245829
v 0.384025 0.594872 -0.187828
v 0.435465 0.567612 0.032717
v 0.383223 0.598378 -0.174486
v 0.423094 0.530782 -0.256624
v 0.573546 0.398403 0.101695
v 0.395711 0.603296 -0.058115
v 0.174539 0.115485 0.665872
v 0.157839 0.124059 0.668317
v -0.347009 -0.060300 0.606347
v -0.371572 -0.182680 0.568588
v 0.075788 -0.530261 0.466972
v 0.178975 -0.496721 0.478370
v 0.182657 -0.493007 0.479547
v 0.251796 -0.264247 0.550380
v 0.533830 -0.471967 -0.164802
v 0.529840 -0.472928 -0.176862
v 0.672309 0.242081 -0.041208
v 0.626502 0.273613 -0.198086
v 0.545245 -0.501366 0.048388
v 0.574142 -0.468369 -0.009009
v 0.504573 -0.495243 0.160147
v 0.494240 -0.470613 0.202132
v 0.631136 -0.176483 0.011405
v 0.583349 -0.446897 -0.020843
v 0.342627 -0.180857 -0.541458
v 0.506623 -0.368533 -0.294680
v 0.508318 -0.107093 -0.402648
vn 0.3221 0.9202 -0.2224
vn 0.5800 0.7431 0.3339
vn -0.3221 -0.9202 0.2225
vn -0.9208 -0.3860 0.0563
vn 0.9165 -0.2031 0.3447
vn -0.1277 0.2292 -0.9650
vn -0.4587 -0.1816 -0.8698
vn -0.3858 0.8561 0.3438
vn -0.6112 0.7790 0.1401
vn -0.5506 0.7983 -0.2441
vn -0.2749 0.8914 -0.3603
vn -0.3804 0.4721 -0.7952
vn -0.1774 0.7587 -0.6269
vn 0.2008 0.6928 -0.6925
vn 0.2008 0.6928 -0.6926
vn 0.0619 -0.2722 -0.9602
vn 0.1839 0.0787 0.9798
vn -0.4744 -0.1712 0.8635
vn -0.8516 0.4805 0.2093
vn -0.8265 0.3092 0.4705
vn -0.8927 0.0036 0.4505
vn -0.8928 0.0036 0.4505
vn -0.0367 -0.9926 -0.1157
vn -0.0358 -0.9927 -0.1151
vn -0.4432 -0.6764 -0.5883
vn -0.7355 -0.6609 -0.1491
vn -0.7006 -0.2586 0.6651
vn -0.1839 -0.0787 -0.9798
vn 0.0561 -0.9860 0.1568
vn 0.1774 -0.7587 0.6269
vn -0.9302 0.1484 -0.3356
vn -0.4953 -0.8602 -0.1212
vn -0.2241 -0.8891 -0.3992
vn -0.2240 -0.8891 -0.3992
vn 0.2749 -0.8914 0.3603
vn -0.0104 -0.2929 0.9561
vn -0.0103 -0.2929 0.9561
vn 0.4886 0.5281 0.6945
vn 0.2386 0.7137 0.6586
vn 0.2241 0.8890 0.3993
vn 0.0219 0.9988 -0.0446
vn 0.4953 0.8602 0.1212
vn 0.4953 0.8603 0.1212
vn 0.7355 0.6609 0.1491
vn 0.4181 0.7708 -0.4806
vn 0.2685 -0.3581 0.8943
vn -0.4178 -0.7052 0.5728
vn -0.2756 0.4735 0.8366
vn 0.8184 -0.0083 0.5746
vn 0.7916 0.6010 -0.1103
vn 0.6867 -0.2813 -0.6703
vn 0.8517 -0.4805 -0.2093
vn 0.6104 -0.7793 -0.1417
vn 0.6112 -0.7790 -0.1402
vn 0.6112 -0.7790 -0.1401
vn 0.5156 -0.6776 0.5244
vn 0.5157 -0.6776 0.5244
vn 0.5506 -0.7983 0.2441
vn 0.9443 -0.1309 -0.3020
vn 0.1922 -0.7154 -0.6718
vn 0.5515 0.2555 -0.7941
vn 0.9165 -0.2030 0.3447
vn -0.6112 0.7790 0.1402
vn -0.0388 -0.9924 -0.1169
vn -0.4953 -0.8603 -0.1212
vn -0.0101 -0.2930 0.9561
vn 0.0219 0.9988 -0.0445
vn 0.4182 0.7707 -0.4807
vn -0.4178 -0.7052 0.5729
vn -0.2756 0.4735 0.8365
vn 0.6100 -0.7795 -0.1426
vn 0.6114 -0.7788 -0.1402
vn 0.5157 -0.6775 0.5244
vn 0.9442 -0.1313 -0.3019
vn 0.9443 -0.1308 -0.3020
vn 0.1921 -0.7156 -0.6716
vn 0.1921 -0.7154 -0.6717
vt 0.586471 0.689454
vt 0.590058 0.688652
vt 0.591843 0.694106
vt 0.534091 0.648780
vt 0.465471 0.694422
vt 0.440966 0.602306
vt 0.050072 0.219640
vt 0.041815 0.274005
vt 0.033303 0.259470
vt 1.030675 0.353178
vt 1.150956 0.485784
vt 1.140752 0.581875
vt 0.619392 0.168643
vt 0.507975 0.123393
vt 0.599676 0.131433
vt 0.813298 0.589839
vt 0.851057 0.678288
vt 0.786858 0.719035
vt 0.909318 0.514073
vt 0.872844 0.512629
vt 0.893104 0.496612
vt 0.232271 0.809987
vt 0.350924 0.810160
vt 0.271340 0.897977
vt 0.142932 0.928204
vt 0.208356 0.788245
vt 1.142932 0.928204
vt 0.878703 0.960257
vt 0.875787 0.921494
vt 0.738031 0.863750
vt 0.837064 0.866077
vt 0.834245 0.823752
vt 0.758928 0.747759
vt 0.674816 0.752178
vt 0.701264 0.801980
vt 0.671746 0.770454
vt 0.812650 0.518409
vt 0.815266 0.519180
vt 0.813158 0.521379
vt 0.355287 0.466114
vt 0.358176 0.459690
vt 0.361064 0.471394
vt 0.229392 0.489877
vt 0.193070 0.470820
vt 0.208547 0.447772
vt 0.198330 0.759353
vt 0.188123 0.806759
vt 0.181689 0.749883
vt 0.189219 0.588462
vt 0.156424 0.628332
vt 0.191792 0.563728
vt 0.140752 0.581875
vt 0.854280 0.061094
vt 1.073561 0.164395
vt 1.033303 0.259470
vt 0.993034 0.439108
vt 0.980158 0.290304
vt 1.002410 0.362988
vt 0.998571 0.413856
vt 0.199011 0.542450
vt 0.153705 0.529998
vt 0.150956 0.485784
vt 0.873076 0.600858
vt 0.947499 0.056296
vt 1.129101 0.129195
vt 0.248257 0.188771
vt 0.255159 0.123141
vt 0.292067 0.178560
vt 1.181689 0.749883
vt 1.041815 0.274005
vt 0.980312 0.289450
vt 0.977625 0.289436
vt 0.977929 0.287731
vt 1.204319 0.138610
vt 1.382290 0.031019
vt 0.402238 0.570221
vt 0.446338 0.586653
vt 0.444950 0.664913
vt 0.408010 0.713447
vt 0.404509 0.735586
vt 0.511418 0.684953
vt 0.536354 0.649342
vt 0.531504 0.546936
vt 0.352597 0.194587
vt 0.348884 0.269270
vt 0.294168 0.179309
vt 0.570950 0.477457
vt 0.398402 0.551283
vt 0.609603 0.659361
vt 0.690648 0.385446
vt 0.702637 0.253462
vt 0.748696 0.400347
vt 0.618537 0.157675
vt 0.681299 0.185212
vt 0.854351 0.060985
vt 0.685698 0.187854
vt 0.382290 0.031019
vt 0.867810 0.056540
vt 0.534930 0.115476
vt 0.511744 0.566817
vt 1.048977 0.336422
vt 1.153705 0.529998
vt 0.579877 0.280110
vt 0.858678 0.642594
vt 0.185424 0.943746
vt 1.185424 0.943746
vt 0.779163 0.733137
vt 1.050072 0.219640
vt 0.204319 0.138610
vt 1.156424 0.628332
vt 1.188123 0.806759
vt 1.255159 0.123141
vt 0.556336 0.680301
vt 0.048977 0.336422
vt 0.073561 0.164395
vt 0.129101 0.129195
vt 0.604157 0.510949
s 1
usemtl None
f 76/1/1 74/2/1 15/3/1
f 67/4/2 73/5/2 72/6/2
f 62/7/3 36/8/3 57/9/3
f 42/10/4 43/11/4 41/12/4
f 97/13/5 95/14/5 92/15/5
f 22/16/6 4/17/6 21/18/6
f 51/19/7 46/20/7 55/21/7
f 31/22/8 32/23/8 16/24/8
f 16/24/9 2/25/9 30/26/9
f 2/27/10 13/28/10 8/29/10
f 8/29/11 12/30/11 7/31/11
f 3/32/12 21/18/12 4/17/12
f 12/30/13 23/33/13 3/32/13
f 19/34/14 11/35/14 14/36/15
f 47/37/16 45/38/16 18/39/16
f 81/40/17 80/41/17 34/42/17
f 82/43/18 39/44/18 83/45/18
f 25/46/19 1/47/19 9/48/19
f 26/49/20 9/48/20 10/50/20
f 24/51/21 10/50/21 41/52/22
f 65/53/23 61/54/24 57/55/24
f 53/56/25 55/21/25 50/57/25
f 52/58/26 42/10/26 54/59/26
f 29/60/27 40/61/27 43/62/27
f 45/38/28 6/63/28 22/16/28
f 61/54/29 60/64/29 38/65/29
f 84/66/30 48/67/30 85/68/30
f 51/19/31 9/69/31 7/31/31
f 36/70/32 42/10/32 50/57/32
f 59/71/33 56/72/34 64/73/34
f 37/74/35 60/64/35 49/75/35
f 81/40/36 83/45/36 85/68/37
f 28/76/38 71/77/38 72/6/38
f 28/76/39 68/78/39 27/79/39
f 27/79/40 73/5/40 33/80/40
f 11/35/41 16/24/41 69/81/41
f 75/82/42 69/81/43 67/4/42
f 67/4/44 78/83/44 75/82/44
f 74/2/45 19/34/45 14/36/45
f 66/84/46 87/85/46 86/86/46
f 62/7/47 84/66/47 39/44/47
f 81/40/48 27/79/48 30/26/48
f 90/87/49 35/88/49 66/84/49
f 75/82/50 90/87/50 77/89/50
f 100/90/51 99/91/51 98/92/51
f 93/93/52 88/94/52 97/13/52
f 58/95/53 89/96/54 93/93/55
f 49/97/56 95/14/56 86/86/57
f 63/98/58 92/15/58 94/99/58
f 97/13/59 89/96/59 100/90/59
f 46/20/60 99/91/60 65/53/60
f 21/18/61 77/89/61 47/37/61
f 71/77/2 70/100/2 67/4/2
f 67/4/2 69/81/2 73/5/2
f 73/5/2 68/78/2 72/6/2
f 72/6/2 71/77/2 67/4/2
f 53/56/4 54/59/4 42/10/4
f 42/10/4 44/101/4 43/11/4
f 43/11/4 40/102/4 41/12/4
f 41/12/4 53/56/4 42/10/4
f 92/15/5 93/93/62 97/13/5
f 97/13/5 96/103/5 95/14/5
f 95/14/5 94/99/62 92/15/5
f 22/16/6 5/104/6 4/17/6
f 51/19/7 6/63/7 46/20/7
f 30/26/9 31/22/63 16/24/9
f 16/24/9 17/105/63 2/25/9
f 2/25/9 1/47/9 30/26/9
f 2/27/10 17/106/10 13/28/10
f 8/29/11 13/28/11 12/30/11
f 3/32/12 20/107/12 21/18/12
f 3/32/13 7/31/13 12/30/13
f 12/30/13 11/35/13 23/33/13
f 23/33/13 20/107/13 3/32/13
f 19/34/14 23/33/14 11/35/14
f 82/43/18 29/60/18 39/44/18
f 25/46/19 30/26/19 1/47/19
f 26/49/20 25/46/20 9/48/20
f 41/52/22 40/61/22 24/51/21
f 24/51/21 26/49/21 10/50/21
f 59/71/24 64/73/24 65/53/23
f 65/53/23 58/95/64 63/98/24
f 63/98/24 60/64/24 61/54/24
f 61/54/24 62/108/24 57/55/24
f 57/55/24 59/71/24 65/53/23
f 65/53/23 63/98/24 61/54/24
f 52/58/25 54/59/25 53/56/25
f 53/56/25 51/19/25 55/21/25
f 55/21/25 56/72/25 50/57/25
f 50/57/25 52/58/25 53/56/25
f 43/62/27 39/44/27 29/60/27
f 29/60/27 24/51/27 40/61/27
f 22/16/28 18/39/28 45/38/28
f 45/38/28 46/20/28 6/63/28
f 6/63/28 5/104/28 22/16/28
f 84/66/30 37/109/30 48/67/30
f 5/104/31 6/63/31 51/19/31
f 51/19/31 53/56/31 41/12/31
f 41/12/31 10/110/31 9/69/31
f 9/69/31 1/111/31 2/27/31
f 2/27/31 8/29/31 7/31/31
f 7/31/31 3/32/31 4/17/31
f 4/17/31 5/104/31 51/19/31
f 51/19/31 41/12/31 9/69/31
f 9/69/31 2/27/31 7/31/31
f 7/31/31 4/17/31 51/19/31
f 59/71/32 57/55/65 36/70/32
f 36/70/32 44/101/32 42/10/32
f 42/10/32 52/58/32 50/57/32
f 50/57/32 59/71/32 36/70/32
f 59/71/33 50/57/33 56/72/34
f 49/75/35 48/112/35 37/74/35
f 37/74/35 38/65/35 60/64/35
f 60/64/35 63/98/35 49/75/35
f 85/68/37 86/86/66 87/85/36
f 87/85/36 80/41/36 81/40/36
f 81/40/36 82/43/36 83/45/36
f 83/45/36 84/66/36 85/68/37
f 85/68/37 87/85/36 81/40/36
f 28/76/38 35/88/38 71/77/38
f 28/76/39 72/6/39 68/78/39
f 27/79/40 68/78/40 73/5/40
f 15/3/67 14/36/41 11/35/41
f 11/35/41 12/30/41 13/28/41
f 13/28/41 17/105/41 16/24/41
f 16/24/41 32/23/41 33/80/41
f 33/80/41 73/5/41 69/81/41
f 69/81/41 79/113/41 76/1/41
f 76/1/41 15/3/67 11/35/41
f 11/35/41 13/28/41 16/24/41
f 16/24/41 33/80/41 69/81/41
f 69/81/41 76/1/41 11/35/41
f 75/82/42 79/113/43 69/81/43
f 67/4/44 70/100/44 78/83/44
f 14/36/45 15/3/68 74/2/45
f 74/2/45 77/89/45 19/34/45
f 39/44/47 43/62/47 44/114/47
f 44/114/47 36/8/69 62/7/47
f 62/7/47 61/115/47 38/116/47
f 38/116/47 37/109/47 84/66/47
f 84/66/47 83/45/47 39/44/47
f 39/44/47 44/114/47 62/7/47
f 62/7/47 38/116/47 84/66/47
f 26/49/48 24/51/48 29/60/48
f 29/60/48 82/43/48 81/40/48
f 81/40/48 34/42/70 35/88/48
f 35/88/48 28/76/48 27/79/48
f 27/79/48 33/80/48 32/23/48
f 32/23/48 31/22/70 30/26/48
f 30/26/48 25/46/48 26/49/48
f 26/49/48 29/60/48 81/40/48
f 81/40/48 35/88/48 27/79/48
f 27/79/48 32/23/48 30/26/48
f 30/26/48 26/49/48 81/40/48
f 95/14/49 96/103/49 90/87/49
f 90/87/49 78/83/49 70/100/49
f 70/100/49 71/77/49 35/88/49
f 35/88/49 34/42/49 80/41/49
f 80/41/49 87/85/49 66/84/49
f 66/84/49 95/14/49 90/87/49
f 90/87/49 70/100/49 35/88/49
f 35/88/49 80/41/49 66/84/49
f 77/89/50 74/2/50 76/1/50
f 76/1/50 79/113/50 75/82/50
f 75/82/50 78/83/50 90/87/50
f 90/87/50 91/117/50 77/89/50
f 77/89/50 76/1/50 75/82/50
f 93/93/55 92/15/55 58/95/53
f 58/95/53 65/53/71 89/96/54
f 89/96/54 88/94/72 93/93/55
f 85/68/73 48/67/56 49/97/56
f 49/97/56 94/99/56 95/14/56
f 95/14/56 66/84/56 86/86/57
f 86/86/57 85/68/73 49/97/56
f 94/99/58 49/97/58 63/98/58
f 63/98/58 58/95/58 92/15/58
f 100/90/59 91/117/59 90/87/59
f 90/87/59 96/103/59 97/13/59
f 97/13/59 88/94/74 89/96/59
f 89/96/59 99/91/75 100/90/59
f 100/90/59 90/87/59 97/13/59
f 65/53/60 64/73/76 56/72/77
f 56/72/77 55/21/60 46/20/60
f 46/20/60 45/38/60 47/37/60
f 47/37/60 98/92/60 99/91/60
f 99/91/60 89/96/60 65/53/60
f 65/53/60 56/72/77 46/20/60
f 46/20/60 47/37/60 99/91/60
f 18/39/61 22/16/61 21/18/61
f 21/18/61 20/107/61 23/33/61
f 23/33/61 19/34/61 77/89/61
f 77/89/61 91/117/61 100/90/61
f 100/90/61 98/92/61 47/37/61
f 47/37/61 18/39/61 21/18/61
f 21/18/61 23/33/61 77/89/61
f 77/89/61 100/90/61 47/37/61
