# Blender 5.1.1
# www.blender.org
mtllib scissors.mtl
o group2140332494
v 0.159131 -1.013746 1.698842
v 0.129138 -0.855718 1.766118
v 0.142257 -0.802198 1.702424
v 0.167966 -0.937651 1.644758
v 0.129952 -1.072474 1.735409
v 0.096822 -0.897919 1.809721
v 0.088247 -1.098099 1.744661
v 0.053969 -0.917495 1.821548
v 0.045191 -1.083755 1.724119
v 0.012062 -0.909200 1.798431
v 0.012321 -1.033285 1.679287
v -0.017672 -0.875256 1.746564
v -0.001556 -0.960213 1.622178
v -0.027264 -0.824760 1.679844
v 0.007279 -0.884118 1.568094
v -0.014144 -0.771241 1.616149
v 0.036458 -0.825390 1.531527
v 0.018172 -0.729039 1.572546
v 0.078163 -0.799765 1.522275
v 0.061024 -0.709464 1.560719
v 0.121219 -0.814110 1.542817
v 0.102932 -0.717759 1.583836
v 0.154089 -0.864579 1.587649
v 0.132666 -0.751702 1.635704
v 0.102453 -0.600141 1.711089
v 0.119385 -0.583133 1.655256
v 0.067347 -0.615615 1.748937
v 0.023473 -0.625407 1.758658
v -0.017414 -0.626895 1.737647
v -0.044356 -0.619680 1.691535
v -0.050136 -0.605694 1.632676
v -0.033204 -0.588686 1.576843
v 0.001902 -0.573213 1.538994
v 0.045776 -0.563420 1.529274
v 0.086663 -0.561932 1.550284
v 0.113605 -0.569147 1.596397
v 0.086227 -0.315498 1.548499
v 0.105477 -0.339153 1.515893
v 0.049424 -0.301204 1.569344
v 0.004929 -0.300101 1.572841
v -0.035337 -0.312484 1.558054
v -0.060582 -0.335037 1.528944
v -0.064044 -0.361714 1.493313
v -0.044795 -0.385369 1.460707
v -0.007991 -0.399664 1.439862
v 0.036504 -0.400767 1.436365
v 0.076769 -0.388383 1.451152
v 0.102015 -0.365831 1.480261
v 0.084807 -0.078058 1.321914
v 0.104260 -0.135633 1.321677
v 0.047855 -0.038933 1.319062
v 0.003305 -0.028741 1.313886
v -0.036905 -0.050213 1.307773
v -0.062002 -0.097597 1.302359
v -0.065261 -0.158194 1.299097
v -0.045809 -0.215769 1.298860
v -0.008857 -0.254895 1.301712
v 0.035693 -0.265087 1.306888
v 0.075903 -0.243614 1.313001
v 0.101001 -0.196231 1.318415
v 0.098574 0.048557 1.092047
v 0.116060 -0.027106 1.124648
v 0.063062 0.100923 1.065156
v 0.019039 0.115962 1.051181
v -0.021699 0.089642 1.053867
v -0.048236 0.029018 1.072493
v -0.053462 -0.049668 1.102069
v -0.035976 -0.125330 1.134670
v -0.000464 -0.177697 1.161560
v 0.043559 -0.192735 1.175535
v 0.084297 -0.166416 1.172850
v 0.110834 -0.105792 1.154224
v 0.123838 0.030420 0.920491
v 0.137715 -0.042652 0.977600
v 0.090968 0.080890 0.875659
v 0.047912 0.095234 0.855117
v 0.006208 0.069609 0.864370
v -0.022972 0.010881 0.900936
v -0.031806 -0.065213 0.955020
v -0.017930 -0.138285 1.012129
v 0.014940 -0.188755 1.056961
v 0.057996 -0.203099 1.077503
v 0.099701 -0.177474 1.068251
v 0.128880 -0.118747 1.031684
v 0.153831 -0.127608 0.853214
v 0.163423 -0.178105 0.919934
v 0.083335 0.066292 0.802089
v 0.041473 0.074334 0.778800
v 0.007021 -0.147147 0.833660
v -0.006098 -0.200666 0.897355
v 0.003494 -0.251163 0.964075
v 0.033227 -0.285106 1.015942
v 0.075135 -0.293401 1.039059
v 0.117988 -0.273825 1.027232
v 0.150303 -0.231624 0.983629
v 0.180515 -0.383185 0.908243
v 0.186295 -0.397170 0.967102
v 0.153573 -0.375969 0.862131
v 0.131231 -0.702764 1.026937
v 0.068812 -0.387250 0.850841
v 0.033706 -0.402723 0.888689
v 0.016774 -0.419732 0.944523
v 0.022554 -0.433717 1.003381
v 0.049497 -0.440933 1.049494
v 0.090383 -0.439445 1.070505
v 0.134257 -0.429652 1.060784
v 0.169364 -0.414179 1.022936
v 0.196742 -0.667828 1.070833
v 0.200203 -0.641150 1.106465
v 0.171496 -0.690380 1.041724
v 0.086735 -0.701661 1.030435
v 0.049932 -0.687367 1.051279
v 0.030682 -0.663711 1.083886
v 0.034144 -0.637034 1.119517
v 0.059390 -0.614482 1.148626
v 0.099655 -0.602098 1.163413
v 0.144151 -0.603201 1.159916
v 0.180954 -0.617495 1.139071
v 0.198162 -0.905268 1.297419
v 0.201421 -0.844670 1.300681
v 0.173064 -0.952651 1.292005
v 0.132854 -0.974123 1.285892
v 0.088304 -0.963932 1.280716
v 0.051352 -0.924806 1.277864
v 0.031899 -0.867231 1.278101
v 0.035159 -0.806634 1.281363
v 0.060256 -0.759250 1.286777
v 0.100466 -0.737778 1.292891
v 0.145016 -0.747970 1.298066
v 0.181968 -0.787095 1.300918
v 0.184395 -1.031883 1.527286
v 0.189621 -0.953197 1.497710
v 0.157858 -1.092507 1.545912
v 0.117120 -1.118826 1.548597
v 0.073098 -1.103788 1.534622
v 0.037586 -1.051421 1.507731
v 0.020100 -0.975758 1.475130
v 0.025325 -0.897073 1.445554
v 0.051862 -0.836448 1.426928
v 0.092600 -0.810129 1.424243
v 0.136623 -0.825168 1.438218
v 0.172135 -0.877534 1.465109
v 0.028188 0.128012 0.354961
v -0.005878 0.474573 0.304772
v -0.035649 0.562225 -0.130212
v -0.046355 0.486363 0.280645
v -0.215038 2.354683 -1.099775
v -0.034081 -0.334377 -1.881464
v -0.047742 -0.185760 -1.889233
v -0.069525 -0.213554 -1.965695
v -0.053587 -0.386940 -1.956632
v -0.108209 -0.235798 -2.017994
v -0.090604 -0.427316 -2.007983
v -0.153428 -0.246533 -2.032117
v -0.135214 -0.444688 -2.021760
v -0.193066 -0.242882 -2.004279
v -0.175462 -0.434399 -1.994268
v -0.216502 -0.225822 -1.941940
v -0.200565 -0.399208 -1.932877
v -0.217457 -0.199927 -1.861803
v -0.203796 -0.348543 -1.854034
v -0.195674 -0.172133 -1.785341
v -0.184290 -0.295980 -1.778867
v -0.156990 -0.149889 -1.733041
v -0.147273 -0.255603 -1.727515
v -0.111771 -0.139154 -1.718918
v -0.102664 -0.238232 -1.713739
v -0.072133 -0.142806 -1.746756
v -0.062415 -0.248520 -1.741230
v -0.048696 -0.159865 -1.809096
v -0.037312 -0.283712 -1.802622
v -0.044660 0.006014 -1.771119
v -0.065929 0.010182 -1.827895
v -0.104237 0.011336 -1.865784
v -0.149318 0.009166 -1.874632
v -0.189094 0.004253 -1.852069
v -0.212906 -0.002086 -1.804141
v -0.214375 -0.008153 -1.743689
v -0.193105 -0.012321 -1.686912
v -0.154798 -0.013475 -1.649024
v -0.109716 -0.011305 -1.640176
v -0.069940 -0.006392 -1.662739
v -0.046128 -0.000053 -1.710667
v -0.025660 0.189560 -1.558772
v -0.043763 0.224320 -1.580157
v -0.079753 0.247868 -1.592137
v -0.123986 0.253894 -1.591502
v -0.164610 0.240785 -1.578422
v -0.190740 0.212051 -1.556402
v -0.195375 0.175394 -1.531342
v -0.177272 0.140634 -1.509956
v -0.141283 0.117086 -1.497976
v -0.097050 0.111059 -1.498611
v -0.056425 0.124169 -1.511691
v -0.030295 0.152902 -1.533711
v 0.004165 0.315698 -1.309089
v -0.008967 0.371480 -1.288861
v -0.041317 0.410418 -1.270377
v -0.084218 0.422078 -1.258592
v -0.126175 0.403335 -1.256662
v -0.155944 0.359212 -1.265105
v -0.165550 0.301531 -1.281659
v -0.152418 0.245748 -1.301888
v -0.120067 0.206811 -1.320371
v -0.077166 0.195151 -1.332156
v -0.035210 0.213894 -1.334085
v -0.005440 0.258017 -1.325642
v 0.036825 0.350628 -1.088973
v 0.029137 0.412232 -1.032059
v 0.000771 0.455432 -0.986720
v -0.040672 0.468651 -0.965105
v -0.084086 0.448349 -0.973005
v -0.117841 0.399964 -1.008304
v -0.132890 0.336461 -1.061543
v -0.125201 0.274857 -1.118458
v -0.096835 0.231657 -1.163797
v -0.055393 0.218438 -1.185412
v -0.011978 0.238741 -1.177512
v 0.021776 0.287125 -1.142213
v 0.063569 0.284991 -0.957404
v 0.060337 0.335656 -0.878562
v 0.035235 0.370848 -0.817171
v -0.005014 0.381136 -0.789680
v -0.049623 0.363764 -0.803456
v -0.086640 0.323388 -0.854807
v -0.106146 0.270825 -0.929975
v -0.102915 0.220160 -1.008817
v -0.077812 0.184968 -1.070209
v -0.037564 0.174680 -1.097700
v 0.007045 0.192051 -1.083924
v 0.044062 0.232428 -1.032572
v 0.077229 0.136375 -0.949636
v 0.076275 0.162270 -0.869499
v 0.029541 0.333194 -0.752103
v -0.010071 0.336546 -0.724190
v -0.070702 0.150002 -0.845744
v -0.092486 0.122209 -0.922206
v -0.091531 0.096313 -1.002344
v -0.068095 0.079254 -1.064683
v -0.028457 0.075603 -1.092521
v 0.016763 0.086337 -1.078398
v 0.055446 0.108581 -1.026098
v 0.074147 -0.055399 -1.067750
v 0.072679 -0.061466 -1.007298
v 0.048867 -0.067805 -0.959370
v -0.016242 -0.317446 -1.219937
v -0.035991 -0.074888 -0.945655
v -0.074298 -0.073734 -0.983544
v -0.095568 -0.069566 -1.040320
v -0.094100 -0.063499 -1.100772
v -0.070287 -0.057160 -1.148700
v -0.030511 -0.052247 -1.171263
v 0.014570 -0.050077 -1.162415
v 0.052878 -0.051230 -1.124527
v 0.055148 -0.238946 -1.280097
v 0.050513 -0.275603 -1.255037
v 0.024383 -0.304337 -1.233017
v -0.060475 -0.311420 -1.219302
v -0.096464 -0.287872 -1.231282
v -0.114567 -0.253112 -1.252668
v -0.109932 -0.216454 -1.277728
v -0.083802 -0.187721 -1.299748
v -0.043178 -0.174611 -1.312828
v 0.001055 -0.180638 -1.313463
v 0.037045 -0.204186 -1.301483
v 0.025322 -0.365083 -1.529780
v 0.015717 -0.422764 -1.546333
v -0.014053 -0.466887 -1.554776
v -0.056009 -0.485630 -1.552847
v -0.098910 -0.473970 -1.541062
v -0.131261 -0.435032 -1.522578
v -0.144393 -0.379249 -1.502350
v -0.134787 -0.321569 -1.485797
v -0.105018 -0.277446 -1.477354
v -0.063061 -0.258703 -1.479283
v -0.020160 -0.270362 -1.491068
v 0.012190 -0.309300 -1.509552
v -0.007338 -0.400013 -1.749896
v -0.022387 -0.463516 -1.803135
v -0.056141 -0.511901 -1.838434
v -0.099556 -0.532203 -1.846334
v -0.140998 -0.518984 -1.824719
v -0.169364 -0.475784 -1.779380
v -0.177053 -0.414180 -1.722466
v -0.162004 -0.350677 -1.669226
v -0.128250 -0.302292 -1.633927
v -0.084835 -0.281990 -1.626027
v -0.043392 -0.295209 -1.647642
v -0.015026 -0.338409 -1.692981
v 0.002434 0.246289 -0.306585
v 0.008265 0.557665 -0.142893
v 0.008579 0.496979 0.297671
v -0.029529 0.564136 -0.113073
v 0.068935 1.870243 1.812810
v 0.040238 0.585648 0.152803
v 0.039938 0.555434 0.172802
v -0.069639 0.555407 0.171117
v -0.069339 0.585621 0.151118
v 0.039913 0.519267 0.175017
v -0.069664 0.519240 0.173332
v 0.040170 0.486838 0.158853
v -0.069407 0.486811 0.157169
v 0.040639 0.466837 0.128643
v -0.068938 0.466810 0.126958
v 0.041196 0.464622 0.092480
v -0.068381 0.464595 0.090795
v 0.041690 0.480788 0.060055
v -0.067886 0.480760 0.058370
v 0.041990 0.511002 0.040056
v -0.067586 0.510975 0.038371
v 0.042015 0.547169 0.037842
v -0.067561 0.547141 0.036156
v 0.041759 0.579597 0.054005
v -0.067818 0.579570 0.052320
v 0.041289 0.599599 0.084215
v -0.068287 0.599572 0.082530
v 0.040733 0.601814 0.120378
v -0.068844 0.601786 0.118693
vn 0.9631 0.0724 0.2592
vn 0.8342 -0.0743 0.5464
vn 0.3789 -0.3007 0.8752
vn -0.5008 -0.4178 0.7580
vn -0.8986 -0.3049 0.3156
vn -0.9825 -0.1865 0.0001
vn -0.9631 -0.0724 -0.2592
vn -0.8342 0.0743 -0.5464
vn -0.3789 0.3007 -0.8752
vn 0.5008 0.4178 -0.7580
vn 0.8986 0.3049 -0.3156
vn 0.9825 0.1865 -0.0001
vn 0.9279 0.1685 0.3327
vn 0.6677 0.2227 0.7104
vn 0.1629 0.2239 0.9609
vn -0.4565 0.1415 0.8784
vn -0.8620 0.0191 0.5066
vn -0.9932 -0.0872 0.0768
vn -0.9279 -0.1685 -0.3327
vn -0.6677 -0.2227 -0.7103
vn -0.6677 -0.2227 -0.7104
vn -0.1629 -0.2239 -0.9609
vn 0.4565 -0.1415 -0.8784
vn 0.8620 -0.0191 -0.5066
vn 0.9932 0.0872 -0.0768
vn 0.9023 0.2515 0.3502
vn 0.5657 0.4331 0.7017
vn 0.0802 0.4978 0.8636
vn -0.4249 0.4306 0.7963
vn -0.8188 0.2488 0.5173
vn -0.8188 0.2488 0.5174
vn -0.9952 -0.0010 0.0975
vn -0.9952 -0.0011 0.0975
vn -0.9023 -0.2515 -0.3502
vn -0.5657 -0.4331 -0.7017
vn -0.0802 -0.4978 -0.8636
vn 0.4249 -0.4306 -0.7963
vn 0.8188 -0.2488 -0.5173
vn 0.9952 0.0010 -0.0975
vn 0.9952 0.0011 -0.0975
vn 0.9005 0.3030 0.3118
vn 0.5609 0.5733 0.5972
vn 0.0738 0.6887 0.7213
vn -0.4313 0.6215 0.6540
vn -0.8235 0.3890 0.4128
vn -0.9970 0.0504 0.0591
vn -0.9005 -0.3030 -0.3118
vn -0.5609 -0.5733 -0.5972
vn -0.0738 -0.6887 -0.7213
vn 0.4313 -0.6215 -0.6540
vn 0.8235 -0.3890 -0.4128
vn 0.9970 -0.0504 -0.0591
vn 0.9230 0.3109 0.2265
vn 0.6534 0.6459 0.3949
vn 0.1413 0.8635 0.4841
vn -0.4782 0.7811 0.4016
vn -0.8763 0.4423 0.1911
vn -0.9980 0.0553 -0.0293
vn -0.9230 -0.3109 -0.2265
vn -0.6534 -0.6459 -0.3949
vn -0.1413 -0.8635 -0.4841
vn 0.4782 -0.7811 -0.4016
vn 0.4781 -0.7811 -0.4016
vn 0.8763 -0.4423 -0.1911
vn 0.9980 -0.0553 0.0293
vn 0.9564 0.2694 0.1124
vn 0.8121 0.5806 0.0582
vn 0.3370 0.9402 -0.0498
vn -0.5428 0.8231 -0.1670
vn -0.5435 0.8205 -0.1773
vn -0.9207 0.3500 -0.1726
vn -0.9891 0.0105 -0.1468
vn -0.9564 -0.2694 -0.1124
vn -0.8121 -0.5806 -0.0582
vn -0.3370 -0.9402 0.0498
vn 0.5428 -0.8231 0.1670
vn 0.9207 -0.3500 0.1726
vn 0.9891 -0.0105 0.1468
vn 0.4006 0.8899 -0.2181
vn -0.5428 0.8230 -0.1674
vn -0.5436 0.8201 -0.1787
vn -0.8337 -0.2022 -0.5139
vn 0.9454 0.0051 -0.3259
vn 0.8188 -0.2488 -0.5174
vn -0.0802 -0.4978 -0.8635
vn -0.5657 -0.4331 -0.7018
vn 0.5657 0.4331 0.7018
vn 0.5428 -0.8231 0.1669
vn -0.9564 -0.2695 -0.1124
vn 0.3268 0.9041 -0.2752
vn -0.9244 0.0501 -0.3782
vn -0.3870 -0.1645 -0.9073
vn 0.9407 0.3006 -0.1572
vn 0.5296 -0.0310 -0.8477
vn -0.9939 -0.1093 0.0173
vn -0.2161 0.7353 0.6424
vn 0.9926 0.0271 -0.1187
vn 0.9926 0.0108 -0.1209
vn -0.9915 -0.1293 0.0147
vn -0.1679 0.7449 0.6457
vn -0.9507 -0.2995 -0.0801
vn 0.9838 0.1762 -0.0318
vn 0.9961 0.0705 -0.0540
vn -0.9909 -0.1257 -0.0490
vn -0.3047 0.5480 0.7790
vn 0.9520 0.0720 -0.2974
vn 0.7948 0.0414 -0.6055
vn 0.3028 -0.0220 -0.9528
vn -0.5780 -0.0955 -0.8104
vn -0.9400 -0.1034 -0.3251
vn -0.9957 -0.0906 0.0174
vn -0.9520 -0.0720 0.2974
vn -0.7948 -0.0414 0.6055
vn -0.3028 0.0220 0.9528
vn 0.5780 0.0955 0.8104
vn 0.9400 0.1034 0.3251
vn 0.9957 0.0906 -0.0174
vn 0.9239 0.1897 -0.3322
vn 0.6537 0.3892 -0.6490
vn 0.6536 0.3892 -0.6490
vn 0.1407 0.5176 -0.8440
vn -0.4794 0.4658 -0.7438
vn -0.8778 0.2614 -0.4015
vn -0.9993 0.0292 -0.0213
vn -0.9239 -0.1897 0.3322
vn -0.6537 -0.3892 0.6490
vn -0.6536 -0.3892 0.6490
vn -0.1407 -0.5176 0.8440
vn 0.4794 -0.4658 0.7438
vn 0.8778 -0.2614 0.4015
vn 0.9993 -0.0292 0.0213
vn 0.9066 0.2757 -0.3194
vn 0.5754 0.5926 -0.5637
vn 0.0927 0.7492 -0.6559
vn -0.4130 0.7070 -0.5741
vn -0.8107 0.4769 -0.3397
vn -0.9930 0.1171 -0.0124
vn -0.9066 -0.2757 0.3194
vn -0.5754 -0.5926 0.5637
vn -0.0927 -0.7492 0.6559
vn 0.4130 -0.7070 0.5741
vn 0.8107 -0.4769 0.3397
vn 0.9930 -0.1171 0.0124
vn 0.9123 0.3113 -0.2662
vn 0.5907 0.6896 -0.4190
vn 0.1135 0.8813 -0.4588
vn -0.3922 0.8391 -0.3770
vn -0.7954 0.5739 -0.1949
vn -0.9874 0.1527 0.0408
vn -0.9123 -0.3113 0.2662
vn -0.5907 -0.6896 0.4190
vn -0.1135 -0.8813 0.4588
vn 0.3922 -0.8391 0.3770
vn 0.7954 -0.5739 0.1949
vn 0.9874 -0.1527 -0.0408
vn 0.9395 0.2883 -0.1851
vn 0.6998 0.6821 -0.2121
vn 0.2105 0.9602 -0.1836
vn -0.4096 0.9084 -0.0834
vn -0.8316 0.5543 0.0354
vn -0.9838 0.1278 0.1257
vn -0.9395 -0.2883 0.1851
vn -0.6998 -0.6821 0.2121
vn -0.2105 -0.9602 0.1836
vn 0.4096 -0.9084 0.0834
vn 0.8316 -0.5543 -0.0354
vn 0.9838 -0.1278 -0.1257
vn 0.9735 0.2083 -0.0940
vn 0.8662 0.4946 0.0707
vn 0.4382 0.8368 0.3284
vn -0.4431 0.7574 0.4796
vn -0.4426 0.7632 0.4707
vn -0.8686 0.3498 0.3511
vn -0.9742 0.0457 0.2208
vn -0.9735 -0.2083 0.0940
vn -0.8662 -0.4946 -0.0707
vn -0.4382 -0.8368 -0.3284
vn 0.4426 -0.7632 -0.4707
vn 0.8686 -0.3498 -0.3511
vn 0.9742 -0.0457 -0.2208
vn 0.5038 0.7278 0.4653
vn -0.4431 0.7566 0.4809
vn -0.4426 0.7630 0.4711
vn -0.8255 -0.2900 0.4841
vn 0.9547 -0.1854 0.2327
vn 0.4348 0.7284 0.5295
vn -0.8948 -0.0001 0.4465
vn -0.3594 -0.4246 0.8310
vn 0.9739 0.1487 0.1713
vn 0.5624 -0.3581 0.7453
vn -0.9996 -0.0114 0.0275
vn -0.1657 0.9235 -0.3461
vn 0.9942 -0.0995 0.0411
vn 0.9926 -0.1156 0.0378
vn -0.9992 -0.0313 0.0232
vn -0.1169 0.9295 -0.3499
vn -0.9726 -0.2262 0.0533
vn 0.9975 0.0702 0.0090
vn 0.9993 -0.0374 -0.0059
vn -0.9952 -0.0492 0.0843
vn -0.2802 0.8011 -0.5289
vn -0.0130 0.5520 0.8337
vn -0.0154 0.0611 0.9980
vn -0.0136 -0.4461 0.8949
vn -0.0083 -0.8338 0.5519
vn -0.0007 -0.9981 0.0611
vn 0.0071 -0.8950 -0.4461
vn 0.0130 -0.5520 -0.8337
vn 0.0154 -0.0611 -0.9980
vn 0.0136 0.4461 -0.8949
vn 0.0137 0.4461 -0.8949
vn 0.0083 0.8338 -0.5519
vn 0.0007 0.9981 -0.0611
vn -0.0071 0.8950 0.4461
vn 0.9999 0.0002 0.0154
vn -0.9999 -0.0002 -0.0154
vn -0.5780 -0.0955 -0.8105
vn 0.9999 0.0003 0.0154
vn -0.9999 -0.0003 -0.0154
vt 0.404471 0.366601
vt 0.371130 0.369677
vt 0.402203 0.345919
vt 0.366809 0.357172
vt 0.401131 0.330929
vt 0.760154 0.152522
vt 0.780126 0.114000
vt 0.770099 0.157686
vt 0.777064 0.156404
vt 0.475258 0.026173
vt 0.438556 0.015409
vt 0.440745 -0.000000
vt 0.469802 0.039103
vt 0.435868 0.036247
vt 0.462651 0.056556
vt 0.433402 0.056931
vt 0.455720 0.073855
vt 0.431817 0.071918
vt 0.772167 0.344198
vt 0.756771 0.337812
vt 0.766036 0.332199
vt 0.411795 0.408671
vt 0.391064 0.417316
vt 0.410009 0.402831
vt 0.385134 0.404402
vt 0.407329 0.387432
vt 0.377837 0.386965
vt 0.353190 0.426001
vt 0.758667 0.104072
vt 0.765417 0.054473
vt 0.769845 0.110300
vt 0.775545 0.056238
vt 0.647242 0.056672
vt 0.637180 0.004991
vt 0.646887 0.000000
vt 0.495185 0.088345
vt 0.487842 0.095389
vt 0.478114 0.104801
vt 0.785259 0.369264
vt 0.780001 0.330929
vt 0.776655 0.376920
vt 0.762517 0.349057
vt 0.758124 0.376929
vt 0.753636 0.344206
vt 0.372319 0.444633
vt 0.362460 0.435242
vt 0.353190 0.499798
vt 0.754658 0.053531
vt 0.748056 0.000000
vt 0.656923 0.059768
vt 0.647447 0.138097
vt 0.637523 0.059764
vt 0.495185 0.169858
vt 0.487842 0.169185
vt 0.478114 0.168055
vt 0.468606 0.114060
vt 0.787183 0.421605
vt 0.778297 0.421598
vt 0.766723 0.379726
vt 0.759766 0.421607
vt 0.380126 0.451657
vt 0.372320 0.497345
vt 0.362460 0.498497
vt 0.377837 0.559780
vt 0.664152 0.213285
vt 0.657121 0.138465
vt 0.664152 0.139469
vt 0.657121 0.220001
vt 0.637721 0.219997
vt 0.637721 0.138462
vt 0.469802 0.240716
vt 0.462651 0.229367
vt 0.455720 0.217865
vt 0.468606 0.166771
vt 0.776655 0.466261
vt 0.766723 0.463457
vt 0.768262 0.421599
vt 0.391064 0.540244
vt 0.380126 0.496652
vt 0.385134 0.548414
vt 0.404472 0.602670
vt 0.371130 0.571295
vt 0.402203 0.621334
vt 0.366809 0.579874
vt 0.656923 0.282526
vt 0.647447 0.222458
vt 0.637523 0.282523
vt 0.475258 0.248870
vt 0.438556 0.290817
vt 0.435868 0.272311
vt 0.433402 0.253651
vt 0.785259 0.473928
vt 0.772167 0.498940
vt 0.762517 0.494085
vt 0.758124 0.466269
vt 0.410010 0.570753
vt 0.407329 0.584156
vt 0.435226 0.615676
vt 0.438083 0.636507
vt 0.401132 0.635146
vt 0.656580 0.309288
vt 0.647242 0.287150
vt 0.637180 0.309285
vt 0.440744 0.304210
vt 0.402476 0.306063
vt 0.404943 0.285379
vt 0.407630 0.264541
vt 0.409819 0.249132
vt 0.431817 0.239837
vt 0.756771 0.505275
vt 0.748986 0.190398
vt 0.748376 0.175590
vt 0.758389 0.179807
vt 0.431886 0.580004
vt 0.432958 0.594994
vt 0.469157 0.612749
vt 0.440764 0.651906
vt 0.456632 0.657411
vt 0.442550 0.657746
vt 0.646887 0.314839
vt 0.642451 0.323568
vt 0.400891 0.321051
vt 0.371230 0.282368
vt 0.378160 0.265069
vt 0.385312 0.247616
vt 0.754099 0.211881
vt 0.755656 0.188020
vt 0.736787 0.210752
vt 0.738343 0.186891
vt 0.455153 0.578024
vt 0.461860 0.595312
vt 0.487097 0.556425
vt 0.494903 0.563449
vt 0.829599 0.511269
vt 0.813615 0.410952
vt 0.829599 0.330929
vt 0.803058 0.512213
vt 0.818933 0.592799
vt 0.803058 0.696784
vt 0.659038 0.579319
vt 0.667555 0.571566
vt 0.675524 0.625148
vt 0.353190 0.226082
vt 0.362697 0.216824
vt 0.372426 0.207412
vt 0.390768 0.234686
vt 0.786864 0.137731
vt 0.796761 0.162974
vt 0.787054 0.167965
vt 0.747527 0.212762
vt 0.744124 0.240781
vt 0.733353 0.241570
vt 0.724757 0.206391
vt 0.477237 0.547034
vt 0.487097 0.482628
vt 0.494903 0.481934
vt 0.640509 0.579538
vt 0.636616 0.498635
vt 0.645111 0.498531
vt 0.655145 0.498417
vt 0.353190 0.152287
vt 0.362698 0.153571
vt 0.372426 0.154701
vt 0.379769 0.200368
vt 0.786755 0.094291
vt 0.796583 0.134638
vt 0.806155 0.094294
vt 0.806265 0.137734
vt 0.750064 0.274549
vt 0.467967 0.537793
vt 0.477237 0.483780
vt 0.461860 0.422497
vt 0.469156 0.411131
vt 0.638674 0.417694
vt 0.657204 0.417475
vt 0.665895 0.425045
vt 0.664031 0.498323
vt 0.378160 0.092258
vt 0.385312 0.103607
vt 0.390768 0.111761
vt 0.379769 0.155374
vt 0.796481 0.051745
vt 0.796481 0.093926
vt 0.806155 0.049289
vt 0.813186 0.095298
vt 0.455153 0.434012
vt 0.467967 0.485081
vt 0.435226 0.379606
vt 0.438083 0.361092
vt 0.475087 0.402961
vt 0.646133 0.358402
vt 0.647241 0.414785
vt 0.664663 0.358183
vt 0.672647 0.371367
vt 0.371230 0.080755
vt 0.404943 0.049314
vt 0.407630 0.067820
vt 0.409819 0.081214
vt 0.786755 0.049285
vt 0.796583 0.019399
vt 0.431886 0.412082
vt 0.450831 0.442591
vt 0.432957 0.398270
vt 0.440764 0.347689
vt 0.748150 0.175590
vt 0.738940 0.169827
vt 0.654958 0.353438
vt 0.675524 0.336428
vt 0.400892 0.016840
vt 0.402476 0.030654
vt 0.786864 0.014772
vt 0.796761 0.005555
vt 0.806265 0.014776
vt 0.459670 0.662311
vt 0.383704 0.330929
vt 0.669401 0.672344
vt 0.453326 0.662311
vt 0.453326 0.752626
vt 0.446003 0.707807
vt 0.197818 0.000000
vt 0.265930 0.171579
vt 0.200292 0.241271
vt 0.724757 0.336674
vt 0.734034 0.330929
vt 0.723254 0.476252
vt 0.089335 0.165912
vt 0.160333 0.000000
vt 0.157219 0.241348
vt 0.178669 0.386795
vt 0.178669 0.386521
vt 0.714431 0.482695
vt 0.239760 0.315112
vt 0.116129 0.308987
vt 0.089335 0.838205
vt 0.265930 0.838344
vt 0.734034 1.000000
vt 0.512843 0.623562
vt 0.546185 0.626639
vt 0.543916 0.647321
vt 0.508522 0.636068
vt 0.542844 0.662311
vt 0.697753 0.114000
vt 0.717726 0.152522
vt 0.707781 0.157686
vt 0.700816 0.156404
vt 0.580551 0.315520
vt 0.617253 0.304756
vt 0.582739 0.330928
vt 0.577863 0.294682
vt 0.611797 0.291826
vt 0.575397 0.273998
vt 0.604646 0.274373
vt 0.573812 0.259010
vt 0.597715 0.257073
vt 0.756771 0.686614
vt 0.772167 0.680228
vt 0.766037 0.692227
vt 0.532777 0.575924
vt 0.553508 0.584569
vt 0.551722 0.590409
vt 0.526847 0.588838
vt 0.549042 0.605808
vt 0.519550 0.606275
vt 0.494903 0.567239
vt 0.712463 0.054473
vt 0.719213 0.104072
vt 0.708034 0.110300
vt 0.702336 0.056238
vt 0.664152 0.318577
vt 0.674214 0.266896
vt 0.673859 0.323568
vt 0.637180 0.242584
vt 0.629837 0.235540
vt 0.620108 0.226127
vt 0.785259 0.655162
vt 0.780001 0.693497
vt 0.762516 0.675368
vt 0.776655 0.647506
vt 0.758124 0.647497
vt 0.753636 0.680220
vt 0.514032 0.548607
vt 0.504173 0.557998
vt 0.494903 0.493442
vt 0.729825 0.000000
vt 0.723222 0.053531
vt 0.674419 0.185471
vt 0.683896 0.263801
vt 0.664495 0.263804
vt 0.637180 0.161071
vt 0.629837 0.161744
vt 0.610601 0.216869
vt 0.620109 0.162874
vt 0.787183 0.602820
vt 0.766723 0.644700
vt 0.778297 0.602827
vt 0.759766 0.602819
vt 0.514032 0.495895
vt 0.521839 0.541583
vt 0.504173 0.494743
vt 0.519550 0.433460
vt 0.684094 0.185103
vt 0.691125 0.110283
vt 0.691125 0.184099
vt 0.684094 0.103567
vt 0.664694 0.103571
vt 0.664694 0.185106
vt 0.611797 0.090212
vt 0.604646 0.101561
vt 0.597715 0.113064
vt 0.610601 0.164158
vt 0.776655 0.558165
vt 0.766723 0.560968
vt 0.768262 0.602827
vt 0.532777 0.452996
vt 0.521839 0.496588
vt 0.526847 0.444826
vt 0.512843 0.421945
vt 0.546184 0.390570
vt 0.508522 0.413366
vt 0.543916 0.371906
vt 0.674419 0.101110
vt 0.683896 0.041042
vt 0.664495 0.041045
vt 0.580551 0.040112
vt 0.617253 0.082059
vt 0.577863 0.058618
vt 0.575397 0.077278
vt 0.772167 0.525486
vt 0.785259 0.550498
vt 0.762517 0.530341
vt 0.758124 0.558156
vt 0.551722 0.422487
vt 0.549042 0.409084
vt 0.576939 0.377564
vt 0.542844 0.358094
vt 0.579796 0.356733
vt 0.674214 0.036418
vt 0.683553 0.014280
vt 0.664152 0.014283
vt 0.544471 0.024866
vt 0.582740 0.026718
vt 0.546938 0.045550
vt 0.549625 0.066388
vt 0.551814 0.081796
vt 0.573812 0.091092
vt 0.756771 0.519151
vt 0.714745 0.274549
vt 0.715354 0.259741
vt 0.724757 0.270332
vt 0.573599 0.413236
vt 0.574670 0.398246
vt 0.610869 0.380491
vt 0.582477 0.341334
vt 0.584262 0.335494
vt 0.598345 0.335829
vt 0.669424 0.000000
vt 0.673859 0.008729
vt 0.513225 0.048560
vt 0.542887 0.009878
vt 0.520155 0.065860
vt 0.527307 0.083313
vt 0.720467 0.238258
vt 0.722024 0.262119
vt 0.703155 0.239387
vt 0.704711 0.263249
vt 0.596866 0.415216
vt 0.603573 0.397928
vt 0.628809 0.436815
vt 0.636616 0.429791
vt 0.829170 0.180340
vt 0.813186 0.100317
vt 0.829170 -0.000000
vt 0.787183 0.512213
vt 0.803058 0.616198
vt 0.787183 0.696784
vt 0.714431 0.378124
vt 0.706463 0.431706
vt 0.697946 0.423953
vt 0.495185 0.104846
vt 0.504692 0.114105
vt 0.532763 0.096243
vt 0.514421 0.123517
vt 0.797189 0.335919
vt 0.787293 0.361163
vt 0.787482 0.330929
vt 0.710492 0.209358
vt 0.713895 0.237377
vt 0.699721 0.208569
vt 0.691125 0.243748
vt 0.618950 0.446205
vt 0.628809 0.510612
vt 0.636616 0.511305
vt 0.684019 0.504741
vt 0.675524 0.504637
vt 0.679416 0.423734
vt 0.694053 0.504856
vt 0.495185 0.178642
vt 0.504692 0.177358
vt 0.521764 0.130561
vt 0.514421 0.176228
vt 0.797011 0.364255
vt 0.787183 0.404602
vt 0.806584 0.404599
vt 0.806693 0.361159
vt 0.716432 0.175590
vt 0.618950 0.509460
vt 0.609680 0.455447
vt 0.603573 0.570743
vt 0.610869 0.582108
vt 0.677582 0.585578
vt 0.696112 0.585797
vt 0.704802 0.578227
vt 0.702939 0.504949
vt 0.520155 0.238671
vt 0.527307 0.227322
vt 0.532763 0.219168
vt 0.521764 0.175555
vt 0.796909 0.447148
vt 0.796909 0.404968
vt 0.813615 0.403595
vt 0.806584 0.449605
vt 0.596865 0.559228
vt 0.609680 0.508159
vt 0.576939 0.613634
vt 0.616800 0.590279
vt 0.579796 0.632147
vt 0.686149 0.588488
vt 0.685041 0.644870
vt 0.703571 0.645089
vt 0.711555 0.631906
vt 0.546938 0.281614
vt 0.513225 0.250173
vt 0.549625 0.263108
vt 0.551814 0.249715
vt 0.797011 0.479494
vt 0.787183 0.449609
vt 0.573599 0.581158
vt 0.592544 0.550649
vt 0.574670 0.594970
vt 0.582477 0.645551
vt 0.729730 0.175590
vt 0.714431 0.666844
vt 0.693866 0.649834
vt 0.542886 0.314088
vt 0.544471 0.300274
vt 0.797189 0.493339
vt 0.787293 0.484121
vt 0.806693 0.484118
vt 0.601382 0.330929
vt 0.525699 0.000000
vt 0.708309 0.330929
vt 0.438679 0.707130
vt 0.446003 0.662311
vt 0.446003 0.752626
vt 0.287553 0.597073
vt 0.353190 0.666765
vt 0.285078 0.838344
vt 0.742856 0.854677
vt 0.753636 1.000000
vt 0.744360 0.994254
vt 0.067884 0.596857
vt 0.070999 0.838205
vt 0.000000 0.672293
vt 0.089335 0.451410
vt 0.265930 0.451823
vt 0.734034 0.848234
vt 0.327021 0.523232
vt 0.026794 0.529218
vt 0.000000 0.000000
vt 0.353190 0.000000
vt 0.753636 0.330929
vt 0.485036 0.686962
vt 0.493187 0.662311
vt 0.493187 0.686962
vt 0.477978 0.686962
vt 0.485036 0.662311
vt 0.477978 0.669370
vt 0.453326 0.662311
vt 0.477978 0.662311
vt 0.453326 0.677521
vt 0.453326 0.669370
vt 0.477978 0.684579
vt 0.477978 0.677521
vt 0.477978 0.688655
vt 0.453326 0.684579
vt 0.414028 0.692730
vt 0.438679 0.688655
vt 0.438679 0.692730
vt 0.414028 0.681596
vt 0.414028 0.688655
vt 0.438679 0.673445
vt 0.438679 0.681596
vt 0.414028 0.666387
vt 0.414028 0.673445
vt 0.438679 0.662311
vt 0.438679 0.666387
vt 0.500246 0.686962
vt 0.500246 0.662311
vt 0.409952 0.666386
vt 0.402894 0.692730
vt 0.383609 0.673445
vt 0.372475 0.692730
vt 0.353190 0.673445
vt 0.379533 0.666386
vt 0.786755 0.114181
vt 0.450868 0.086365
vt 0.394039 0.422247
vt 0.738940 0.004215
vt 0.780001 0.512213
vt 0.753636 0.498949
vt 0.766036 0.510880
vt 0.450831 0.565518
vt 0.754403 0.240905
vt 0.758389 0.268931
vt 0.813186 0.042573
vt 0.666195 0.330929
vt 0.787054 0.000000
vt 0.806454 0.000003
vt 0.691125 0.114181
vt 0.592863 0.244564
vt 0.535752 0.570993
vt 0.738940 0.004215
vt 0.780001 0.512213
vt 0.753636 0.525477
vt 0.766037 0.513546
vt 0.592544 0.427722
vt 0.720771 0.209234
vt 0.724757 0.181208
vt 0.813615 0.456321
vt 0.705103 0.672344
vt 0.787482 0.498893
vt 0.806882 0.498890
vt 0.477978 0.662311
vt 0.453326 0.688655
vt 0.414028 0.662311
vt 0.387684 0.666386
vt 0.394743 0.662311
vt 0.402894 0.662311
vt 0.414028 0.673445
vt 0.414028 0.681596
vt 0.409952 0.688655
vt 0.394743 0.692730
vt 0.387684 0.688655
vt 0.383609 0.681596
vt 0.379533 0.688655
vt 0.364324 0.692730
vt 0.357265 0.688655
vt 0.353190 0.681596
vt 0.357265 0.666386
vt 0.364324 0.662311
vt 0.372475 0.662311
s 1
usemtl mat8
f 4/1/1 2/2/1 1/3/1
f 1/3/2 6/4/2 5/5/2
f 5/6/3 8/7/3 7/8/3
f 8/7/4 9/9/4 7/8/4
f 10/10/5 11/11/5 9/12/5
f 12/13/6 13/14/6 11/11/6
f 14/15/7 15/16/7 13/14/7
f 16/17/8 17/18/8 15/16/8
f 18/19/9 19/20/9 17/21/9
f 19/22/10 22/23/10 21/24/10
f 21/24/11 24/25/11 23/26/11
f 23/26/12 3/27/12 4/1/12
f 3/27/13 25/28/13 2/2/13
f 2/29/14 27/30/14 6/31/14
f 6/31/15 28/32/15 8/7/15
f 28/33/16 10/34/16 8/35/16
f 29/36/17 12/13/17 10/10/17
f 30/37/18 14/15/18 12/13/18
f 31/38/19 16/17/19 14/15/19
f 32/39/20 18/19/21 16/40/21
f 33/41/22 20/42/22 18/19/22
f 20/42/23 35/43/23 22/44/23
f 22/23/24 36/45/24 24/25/24
f 24/25/25 26/46/25 3/27/25
f 26/46/26 37/47/26 25/28/26
f 25/48/27 39/49/27 27/30/27
f 27/50/28 40/51/28 28/33/28
f 40/51/29 29/52/29 28/33/29
f 41/53/30 30/37/31 29/36/31
f 42/54/32 31/38/33 30/37/33
f 43/55/34 32/56/34 31/38/34
f 44/57/35 33/41/35 32/39/35
f 45/58/36 34/59/36 33/41/36
f 34/59/37 47/60/37 35/43/37
f 35/61/38 48/62/38 36/45/38
f 36/45/39 38/63/40 26/46/39
f 50/64/41 37/47/41 38/63/41
f 49/65/42 39/66/42 37/67/42
f 51/68/43 40/51/43 39/66/43
f 40/51/44 53/69/44 41/70/44
f 41/53/45 54/71/45 42/54/45
f 42/54/46 55/72/46 43/55/46
f 43/55/47 56/73/47 44/74/47
f 44/57/48 57/75/48 45/58/48
f 45/58/49 58/76/49 46/77/49
f 58/76/50 47/60/50 46/77/50
f 59/78/51 48/62/51 47/79/51
f 60/80/52 38/63/52 48/62/52
f 62/81/53 49/82/53 50/64/53
f 61/83/54 51/84/54 49/82/54
f 63/85/55 52/86/55 51/68/55
f 52/86/56 65/87/56 53/69/56
f 53/88/57 66/89/57 54/71/57
f 54/71/58 67/90/58 55/72/58
f 55/72/59 68/91/59 56/73/59
f 56/92/60 69/93/60 57/75/60
f 57/75/61 70/94/61 58/76/61
f 70/94/62 59/95/62 58/76/63
f 71/96/64 60/80/64 59/78/64
f 72/97/65 50/64/65 60/80/65
f 74/98/66 61/83/66 62/81/66
f 73/99/67 63/100/67 61/83/67
f 75/101/68 64/102/68 63/85/68
f 64/102/69 77/103/70 65/87/69
f 65/104/71 78/105/71 66/89/71
f 66/89/72 79/106/72 67/90/72
f 67/90/73 80/107/73 68/91/73
f 68/91/74 81/108/74 69/109/74
f 69/93/75 82/110/75 70/94/75
f 82/111/76 71/112/76 70/113/76
f 83/114/77 72/97/77 71/96/77
f 84/115/78 62/81/78 72/97/78
f 74/98/12 85/116/12 73/99/12
f 73/99/11 85/116/11 75/117/11
f 75/117/79 87/118/79 76/119/79
f 76/120/80 88/121/81 77/103/70
f 77/122/8 89/123/8 78/105/8
f 89/123/7 79/106/7 78/105/7
f 90/124/6 80/107/6 79/106/6
f 91/125/5 81/108/5 80/107/5
f 92/126/4 82/111/4 81/127/4
f 82/111/3 94/128/3 83/129/3
f 83/114/2 95/130/2 84/115/2
f 84/115/1 86/131/1 74/98/1
f 86/131/25 96/132/25 85/116/25
f 85/116/24 96/132/24 98/133/24
f 87/134/82 98/135/82 99/136/82
f 99/137/83 100/138/83 88/139/83
f 100/140/21 101/141/21 89/142/21
f 101/143/19 90/124/19 89/123/19
f 102/144/18 91/125/18 90/124/18
f 103/145/17 92/146/17 91/125/17
f 104/147/16 93/148/16 92/149/16
f 93/150/15 106/151/15 94/128/15
f 94/128/14 107/152/14 95/153/14
f 95/130/13 97/154/13 86/131/13
f 97/154/40 108/155/40 96/132/40
f 96/132/38 110/156/84 98/133/38
f 98/157/37 110/158/37 99/159/37
f 99/159/85 111/160/85 100/140/85
f 111/160/86 101/141/86 100/140/86
f 112/161/34 102/144/34 101/143/34
f 113/162/33 103/145/32 102/144/32
f 114/163/30 104/164/30 103/145/30
f 115/165/29 105/166/29 104/147/29
f 105/166/28 117/167/28 106/168/28
f 106/151/87 118/169/27 107/152/87
f 107/170/26 109/171/26 97/154/26
f 120/172/52 108/155/52 109/171/52
f 119/173/51 110/156/51 108/155/51
f 121/174/50 99/159/50 110/158/50
f 99/159/49 123/175/49 111/160/49
f 111/160/48 124/176/48 112/177/48
f 112/161/47 125/178/47 113/162/47
f 113/162/46 126/179/46 114/163/46
f 114/163/45 127/180/45 115/181/45
f 115/165/44 128/182/44 116/183/44
f 128/182/43 117/167/43 116/183/43
f 129/184/42 118/185/42 117/167/42
f 130/186/41 109/171/41 118/187/41
f 132/188/65 119/173/65 120/172/65
f 131/189/64 121/190/64 119/173/64
f 133/191/62 122/192/63 121/174/63
f 122/192/61 135/193/61 123/175/61
f 123/175/60 136/194/60 124/176/60
f 124/195/59 137/196/59 125/178/59
f 125/178/58 138/197/58 126/179/58
f 126/179/57 139/198/57 127/180/57
f 127/199/56 140/200/56 128/182/56
f 140/200/55 129/184/55 128/182/55
f 141/201/54 130/186/54 129/202/54
f 142/203/53 120/172/53 130/186/53
f 4/1/78 131/189/78 132/188/78
f 1/3/77 133/204/77 131/189/77
f 5/6/88 134/205/76 133/206/76
f 134/207/75 9/208/75 135/193/75
f 135/209/74 11/11/74 136/210/74
f 136/210/89 13/14/73 137/196/89
f 137/196/72 15/16/72 138/197/72
f 138/197/71 17/18/71 139/198/71
f 139/211/69 19/212/69 140/200/69
f 19/212/68 141/213/68 140/200/68
f 21/24/67 142/203/67 141/201/67
f 23/26/66 132/188/66 142/203/66
f 87/118/90 88/214/90 76/119/90
f 77/122/91 88/215/91 89/123/91
f 89/142/92 88/216/92 100/140/92
f 85/116/93 87/118/93 75/117/93
f 98/217/94 87/218/94 85/219/94
f 150/237/106 148/238/106 151/239/106
f 152/240/107 151/239/107 153/241/107
f 154/242/108 153/243/108 155/244/108
f 157/245/109 154/242/109 155/244/109
f 159/246/110 156/247/110 157/248/110
f 161/249/111 158/250/111 159/246/111
f 163/251/112 160/252/112 161/249/112
f 165/253/113 162/254/113 163/251/113
f 167/255/114 164/256/114 165/257/114
f 168/258/115 167/259/115 169/260/115
f 170/261/116 169/260/116 171/262/116
f 149/263/117 171/262/117 148/238/117
f 173/264/118 149/263/118 150/237/118
f 174/265/119 150/266/120 152/267/120
f 175/268/121 152/267/121 154/242/121
f 156/269/122 175/270/122 154/271/122
f 158/250/123 176/272/123 156/247/123
f 160/252/124 177/273/124 158/250/124
f 162/254/125 178/274/125 160/252/125
f 164/256/126 179/275/127 162/276/126
f 166/277/128 180/278/128 164/256/128
f 182/279/129 166/277/129 168/280/129
f 183/281/130 168/258/130 170/261/130
f 172/282/131 170/261/131 149/263/131
f 185/283/132 172/282/132 173/264/132
f 186/284/133 173/285/133 174/265/133
f 187/286/134 174/287/134 175/270/134
f 176/288/135 187/286/135 175/270/135
f 177/273/136 188/289/136 176/272/136
f 178/274/137 189/290/137 177/273/137
f 179/291/138 190/292/138 178/274/138
f 180/278/139 191/293/139 179/275/139
f 181/294/140 192/295/140 180/278/140
f 194/296/141 181/294/141 182/279/141
f 195/297/142 182/298/142 183/281/142
f 184/299/143 183/281/143 172/282/143
f 185/283/144 196/300/144 184/299/144
f 186/301/145 197/302/145 185/303/145
f 187/286/146 198/304/146 186/301/146
f 200/305/147 187/286/147 188/306/147
f 201/307/148 188/289/148 189/290/148
f 202/308/149 189/290/149 190/292/149
f 203/309/150 190/292/150 191/310/150
f 204/311/151 191/293/151 192/295/151
f 205/312/152 192/295/152 193/313/152
f 194/296/153 205/312/153 193/313/153
f 195/297/154 206/314/154 194/315/154
f 184/299/155 207/316/155 195/297/155
f 197/317/156 208/318/156 196/300/156
f 198/319/157 209/320/157 197/317/157
f 199/321/158 210/322/158 198/304/158
f 212/323/159 199/321/159 200/305/159
f 213/324/160 200/325/160 201/307/160
f 214/326/161 201/307/161 202/308/161
f 215/327/162 202/308/162 203/309/162
f 216/328/163 203/329/163 204/311/163
f 217/330/164 204/311/164 205/312/164
f 206/331/165 217/330/165 205/312/165
f 207/316/166 218/332/166 206/314/166
f 196/300/167 219/333/167 207/316/167
f 209/320/168 220/334/168 208/318/168
f 210/335/169 221/336/169 209/320/169
f 211/337/170 222/338/170 210/322/170
f 224/339/171 211/337/172 212/323/172
f 225/340/173 212/341/173 213/324/173
f 226/342/174 213/324/174 214/326/174
f 227/343/175 214/326/175 215/327/175
f 228/344/176 215/327/176 216/345/176
f 229/346/177 216/328/177 217/330/177
f 218/347/178 229/348/178 217/349/178
f 219/333/179 230/350/179 218/332/179
f 208/318/180 231/351/180 219/333/180
f 233/352/117 220/334/117 221/336/117
f 222/353/116 233/352/116 221/336/116
f 223/354/181 234/355/181 222/353/181
f 224/339/171 235/356/182 223/357/183
f 225/340/113 236/358/113 224/359/113
f 226/342/112 236/358/112 225/340/112
f 227/343/111 237/360/111 226/342/111
f 228/344/110 238/361/110 227/343/110
f 229/348/109 239/362/109 228/363/109
f 241/364/108 229/348/108 230/365/108
f 242/366/107 230/350/107 231/351/107
f 232/367/106 231/351/106 220/334/106
f 244/368/131 232/367/131 233/352/131
f 245/369/130 244/368/130 233/352/130
f 246/370/184 245/371/184 234/372/184
f 235/373/185 247/374/185 246/375/185
f 236/376/126 248/377/126 247/378/126
f 237/360/125 248/379/125 236/358/125
f 238/361/124 249/380/124 237/360/124
f 239/381/123 250/382/123 238/361/123
f 240/383/122 251/384/122 239/385/122
f 253/386/121 240/387/121 241/364/121
f 254/388/120 241/364/119 242/389/119
f 243/390/118 242/366/118 232/367/118
f 256/391/143 243/390/143 244/368/143
f 257/392/142 244/368/142 245/369/142
f 246/393/141 257/394/141 245/395/141
f 247/378/140 258/396/140 246/393/140
f 248/377/139 258/396/139 247/378/139
f 249/380/138 259/397/138 248/379/138
f 250/382/137 260/398/137 249/380/137
f 251/399/136 261/400/136 250/382/136
f 252/401/135 262/402/135 251/384/135
f 264/403/134 252/401/134 253/404/134
f 265/405/133 253/386/133 254/388/133
f 255/406/132 254/407/132 243/390/132
f 256/391/155 266/408/155 255/406/155
f 257/392/154 267/409/154 256/391/154
f 246/393/153 268/410/153 257/394/153
f 270/411/152 246/393/152 258/396/152
f 271/412/151 258/396/151 259/413/151
f 272/414/150 259/397/150 260/398/150
f 273/415/149 260/398/149 261/400/149
f 274/416/148 261/400/148 262/417/148
f 275/418/147 262/402/147 263/419/147
f 264/403/146 275/418/146 263/419/146
f 265/420/145 276/421/145 264/403/145
f 255/406/144 277/422/144 265/423/144
f 267/409/167 278/424/167 266/408/167
f 268/425/166 279/426/166 267/409/166
f 269/427/165 280/428/165 268/410/165
f 282/429/164 269/427/164 270/411/164
f 283/430/163 270/411/163 271/412/163
f 284/431/162 271/432/162 272/414/162
f 285/433/161 272/414/161 273/415/161
f 286/434/160 273/415/160 274/416/160
f 287/435/159 274/436/159 275/418/159
f 276/421/158 287/435/158 275/418/158
f 277/422/157 288/437/157 276/438/157
f 266/408/156 289/439/156 277/422/156
f 279/426/180 148/238/180 278/424/180
f 280/440/179 151/239/179 279/426/179
f 281/441/178 153/243/178 280/206/178
f 157/442/177 281/443/177 282/429/177
f 159/246/176 282/444/176 283/445/176
f 161/249/175 283/445/175 284/431/175
f 163/251/174 284/431/174 285/433/174
f 165/253/173 285/433/173 286/434/173
f 167/446/172 286/447/172 287/435/172
f 288/448/170 167/446/170 287/435/170
f 289/439/169 169/260/169 288/437/169
f 278/424/168 171/262/168 289/439/168
f 223/354/186 235/449/186 234/355/186
f 236/358/187 235/450/187 224/359/187
f 247/378/188 235/451/188 236/376/188
f 222/353/189 234/355/189 233/352/189
f 233/452/190 234/453/190 245/454/190
f 4/1/1 3/27/1 2/2/1
f 1/3/2 2/2/2 6/4/2
f 5/6/3 6/31/3 8/7/3
f 8/7/4 10/505/4 9/9/4
f 10/10/5 12/13/5 11/11/5
f 12/13/6 14/15/6 13/14/6
f 14/15/7 16/17/7 15/16/7
f 16/17/8 18/506/8 17/18/8
f 18/19/9 20/42/9 19/20/9
f 19/22/10 20/507/10 22/23/10
f 21/24/11 22/23/11 24/25/11
f 23/26/12 24/25/12 3/27/12
f 3/27/13 26/46/13 25/28/13
f 2/29/14 25/48/14 27/30/14
f 6/31/15 27/30/15 28/32/15
f 28/33/16 29/52/16 10/34/16
f 29/36/17 30/37/17 12/13/17
f 30/37/18 31/38/18 14/15/18
f 31/38/19 32/56/19 16/17/19
f 32/39/20 33/41/20 18/19/21
f 33/41/22 34/59/22 20/42/22
f 20/42/23 34/59/23 35/43/23
f 22/23/24 35/61/24 36/45/24
f 24/25/25 36/45/25 26/46/25
f 26/46/26 38/63/26 37/47/26
f 25/48/27 37/508/27 39/49/27
f 27/50/28 39/66/28 40/51/28
f 40/51/29 41/70/29 29/52/29
f 41/53/30 42/54/30 30/37/31
f 42/54/32 43/55/32 31/38/33
f 43/55/34 44/74/34 32/56/34
f 44/57/35 45/58/35 33/41/35
f 45/58/36 46/77/36 34/59/36
f 34/59/37 46/77/37 47/60/37
f 35/61/38 47/79/38 48/62/38
f 36/45/39 48/62/40 38/63/40
f 50/64/41 49/82/41 37/47/41
f 49/65/42 51/68/42 39/66/42
f 51/68/43 52/86/43 40/51/43
f 40/51/44 52/86/44 53/69/44
f 41/53/45 53/88/45 54/71/45
f 42/54/46 54/71/46 55/72/46
f 43/55/47 55/72/47 56/73/47
f 44/57/48 56/92/48 57/75/48
f 45/58/49 57/75/49 58/76/49
f 58/76/50 59/95/50 47/60/50
f 59/78/51 60/80/51 48/62/51
f 60/80/52 50/64/52 38/63/52
f 62/81/53 61/83/53 49/82/53
f 61/83/54 63/100/54 51/84/54
f 63/85/55 64/102/55 52/86/55
f 52/86/56 64/102/56 65/87/56
f 53/88/57 65/104/57 66/89/57
f 54/71/58 66/89/58 67/90/58
f 55/72/59 67/90/59 68/91/59
f 56/92/60 68/509/60 69/93/60
f 57/75/61 69/93/61 70/94/61
f 70/94/62 71/510/62 59/95/62
f 71/96/64 72/97/64 60/80/64
f 72/97/65 62/81/65 50/64/65
f 74/98/66 73/99/66 61/83/66
f 73/99/67 75/117/67 63/100/67
f 75/101/68 76/120/68 64/102/68
f 64/102/69 76/120/80 77/103/70
f 65/104/71 77/122/71 78/105/71
f 66/89/72 78/105/72 79/106/72
f 67/90/73 79/106/89 80/107/73
f 68/91/74 80/107/74 81/108/74
f 69/93/75 81/511/75 82/110/75
f 82/111/76 83/129/76 71/112/76
f 83/114/77 84/115/77 72/97/77
f 84/115/78 74/98/78 62/81/78
f 74/98/12 86/131/12 85/116/12
f 89/123/7 90/124/7 79/106/7
f 90/124/6 91/125/6 80/107/6
f 91/125/5 92/146/5 81/108/5
f 92/126/4 93/150/4 82/111/4
f 82/111/3 93/150/3 94/128/3
f 83/114/2 94/512/2 95/130/2
f 84/115/1 95/130/1 86/131/1
f 86/131/25 97/154/25 96/132/25
f 101/143/19 102/144/19 90/124/19
f 102/144/18 103/145/18 91/125/18
f 103/145/17 104/164/17 92/146/17
f 104/147/16 105/166/16 93/148/16
f 93/150/15 105/513/15 106/151/15
f 94/128/14 106/151/14 107/152/14
f 95/130/13 107/170/13 97/154/13
f 97/154/40 109/171/40 108/155/40
f 96/132/38 108/155/84 110/156/84
f 111/160/86 112/177/86 101/141/86
f 112/161/34 113/162/34 102/144/34
f 113/162/33 114/163/33 103/145/32
f 114/163/30 115/181/30 104/164/30
f 115/165/29 116/183/29 105/166/29
f 105/166/28 116/183/28 117/167/28
f 106/151/87 117/514/27 118/169/27
f 107/170/26 118/187/26 109/171/26
f 120/172/52 119/173/52 108/155/52
f 119/173/51 121/190/51 110/156/51
f 121/174/50 122/192/50 99/159/50
f 99/159/49 122/192/49 123/175/49
f 111/160/48 123/175/48 124/176/48
f 112/161/47 124/195/47 125/178/47
f 113/162/46 125/178/46 126/179/46
f 114/163/45 126/179/45 127/180/45
f 115/165/44 127/199/44 128/182/44
f 128/182/43 129/184/43 117/167/43
f 129/184/42 130/515/42 118/185/42
f 130/186/41 120/172/41 109/171/41
f 132/188/65 131/189/65 119/173/65
f 131/189/64 133/204/64 121/190/64
f 133/191/62 134/207/62 122/192/63
f 122/192/61 134/207/61 135/193/61
f 123/175/60 135/193/60 136/194/60
f 124/195/59 136/210/59 137/196/59
f 125/178/58 137/196/58 138/197/58
f 126/179/57 138/197/57 139/198/57
f 127/199/56 139/211/56 140/200/56
f 140/200/55 141/213/55 129/184/55
f 141/201/54 142/203/54 130/186/54
f 142/203/53 132/188/53 120/172/53
f 4/1/78 1/3/78 131/189/78
f 1/3/77 5/5/77 133/204/77
f 5/6/88 7/8/88 134/205/76
f 134/207/75 7/516/75 9/208/75
f 135/209/74 9/12/74 11/11/74
f 136/210/89 11/11/73 13/14/73
f 137/196/72 13/14/72 15/16/72
f 138/197/71 15/16/71 17/18/71
f 139/211/69 17/517/69 19/212/69
f 19/212/68 21/518/68 141/213/68
f 21/24/67 23/26/67 142/203/67
f 23/26/66 4/1/66 132/188/66
f 150/237/106 149/263/106 148/238/106
f 152/240/107 150/237/107 151/239/107
f 154/242/108 152/267/108 153/243/108
f 157/245/109 156/519/109 154/242/109
f 159/246/110 158/250/110 156/247/110
f 161/249/111 160/252/111 158/250/111
f 163/251/112 162/254/112 160/252/112
f 165/253/113 164/520/113 162/254/113
f 167/255/114 166/277/114 164/256/114
f 168/258/115 166/521/115 167/259/115
f 170/261/116 168/258/116 169/260/116
f 149/263/117 170/261/117 171/262/117
f 173/264/118 172/282/118 149/263/118
f 174/265/119 173/285/119 150/266/120
f 175/268/121 174/265/121 152/267/121
f 156/269/122 176/288/122 175/270/122
f 158/250/123 177/273/123 176/272/123
f 160/252/124 178/274/124 177/273/124
f 162/254/125 179/291/125 178/274/125
f 164/256/126 180/278/127 179/275/127
f 166/277/128 181/294/128 180/278/128
f 182/279/129 181/294/129 166/277/129
f 183/281/130 182/298/130 168/258/130
f 172/282/131 183/281/131 170/261/131
f 185/283/132 184/299/132 172/282/132
f 186/284/133 185/522/133 173/285/133
f 187/286/134 186/301/134 174/287/134
f 176/288/135 188/306/135 187/286/135
f 177/273/136 189/290/136 188/289/136
f 178/274/137 190/292/137 189/290/137
f 179/291/138 191/310/138 190/292/138
f 180/278/139 192/295/139 191/293/139
f 181/294/140 193/313/140 192/295/140
f 194/296/141 193/313/141 181/294/141
f 195/297/142 194/315/142 182/298/142
f 184/299/143 195/297/143 183/281/143
f 185/283/144 197/317/144 196/300/144
f 186/301/145 198/304/145 197/302/145
f 187/286/146 199/321/146 198/304/146
f 200/305/147 199/321/147 187/286/147
f 201/307/148 200/325/148 188/289/148
f 202/308/149 201/307/149 189/290/149
f 203/309/150 202/308/150 190/292/150
f 204/311/151 203/329/151 191/293/151
f 205/312/152 204/311/152 192/295/152
f 194/296/153 206/331/153 205/312/153
f 195/297/154 207/316/154 206/314/154
f 184/299/155 196/300/155 207/316/155
f 197/317/156 209/320/156 208/318/156
f 198/319/157 210/335/157 209/320/157
f 199/321/158 211/337/158 210/322/158
f 212/323/159 211/337/159 199/321/159
f 213/324/160 212/341/160 200/325/160
f 214/326/161 213/324/161 201/307/161
f 215/327/162 214/326/162 202/308/162
f 216/328/163 215/523/163 203/329/163
f 217/330/164 216/328/164 204/311/164
f 206/331/165 218/524/165 217/330/165
f 207/316/166 219/333/166 218/332/166
f 196/300/167 208/318/167 219/333/167
f 209/320/168 221/336/168 220/334/168
f 210/335/169 222/353/169 221/336/169
f 211/337/170 223/357/170 222/338/170
f 224/339/171 223/357/183 211/337/172
f 225/340/173 224/359/173 212/341/173
f 226/342/174 225/340/174 213/324/174
f 227/343/175 226/342/175 214/326/175
f 228/344/176 227/343/176 215/327/176
f 229/346/177 228/525/177 216/328/177
f 218/347/178 230/365/178 229/348/178
f 219/333/179 231/351/179 230/350/179
f 208/318/180 220/334/180 231/351/180
f 233/352/117 232/367/117 220/334/117
f 226/342/112 237/360/112 236/358/112
f 227/343/111 238/361/111 237/360/111
f 228/344/110 239/381/110 238/361/110
f 229/348/109 240/387/217 239/362/109
f 241/364/108 240/387/108 229/348/108
f 242/366/107 241/526/107 230/350/107
f 232/367/106 242/366/106 231/351/106
f 244/368/131 243/390/131 232/367/131
f 237/360/125 249/380/125 248/379/125
f 238/361/124 250/382/124 249/380/124
f 239/381/123 251/399/123 250/382/123
f 240/383/122 252/401/122 251/384/122
f 253/386/121 252/527/121 240/387/121
f 254/388/120 253/386/120 241/364/119
f 243/390/118 254/407/118 242/366/118
f 256/391/143 255/406/143 243/390/143
f 257/392/142 256/391/142 244/368/142
f 248/377/139 259/413/139 258/396/139
f 249/380/138 260/398/138 259/397/138
f 250/382/137 261/400/137 260/398/137
f 251/399/136 262/417/136 261/400/136
f 252/401/135 263/419/135 262/402/135
f 264/403/134 263/419/134 252/401/134
f 265/405/133 264/528/133 253/386/133
f 255/406/132 265/423/132 254/407/132
f 256/391/155 267/409/155 266/408/155
f 257/392/154 268/425/154 267/409/154
f 246/393/153 269/427/153 268/410/153
f 270/411/152 269/427/152 246/393/152
f 271/412/151 270/411/151 258/396/151
f 272/414/150 271/432/150 259/397/150
f 273/415/149 272/414/149 260/398/149
f 274/416/148 273/415/148 261/400/148
f 275/418/147 274/436/147 262/402/147
f 264/403/146 276/421/146 275/418/146
f 265/420/145 277/529/145 276/421/145
f 255/406/144 266/408/144 277/422/144
f 267/409/167 279/426/167 278/424/167
f 268/425/166 280/440/166 279/426/166
f 269/427/165 281/443/165 280/428/165
f 282/429/164 281/443/164 269/427/164
f 283/430/163 282/429/163 270/411/163
f 284/431/162 283/445/162 271/432/162
f 285/433/161 284/431/161 272/414/161
f 286/434/160 285/433/160 273/415/160
f 287/435/159 286/447/159 274/436/159
f 276/421/158 288/448/158 287/435/158
f 277/422/157 289/439/157 288/437/157
f 266/408/156 278/424/156 289/439/156
f 279/426/180 151/239/180 148/238/180
f 280/440/179 153/241/179 151/239/179
f 281/441/178 155/244/178 153/243/178
f 157/442/177 155/530/177 281/443/177
f 159/246/176 157/248/176 282/444/176
f 161/249/175 159/246/175 283/445/175
f 163/251/174 161/249/174 284/431/174
f 165/253/173 163/251/173 285/433/173
f 167/446/172 165/531/172 286/447/172
f 288/448/170 169/532/170 167/446/170
f 289/439/169 171/262/169 169/260/169
f 278/424/168 148/238/168 171/262/168
usemtl mat22
f 99/220/95 88/221/95 143/222/95
f 88/223/96 87/224/96 144/225/96
f 87/226/97 99/227/97 143/228/97
f 87/226/98 143/228/98 145/229/98
f 143/222/99 88/221/99 145/230/99
f 144/225/100 146/231/100 88/223/100
f 88/221/101 146/232/101 145/230/101
f 145/229/102 144/233/102 87/226/102
f 144/233/103 145/229/103 147/234/103
f 145/230/104 146/232/104 147/235/104
f 146/231/105 144/225/105 147/236/105
usemtl mat15
f 290/455/191 235/456/191 246/457/191
f 291/458/192 234/459/192 235/460/192
f 290/461/193 246/462/193 234/463/193
f 292/464/194 290/461/194 234/463/194
f 292/465/195 235/456/195 290/455/195
f 235/460/196 293/466/196 291/458/196
f 292/465/197 293/467/197 235/456/197
f 234/463/198 291/468/198 292/464/198
f 294/469/199 292/464/199 291/468/199
f 294/470/200 293/467/200 292/465/200
f 294/471/201 291/458/201 293/466/201
usemtl mat21
f 297/472/202 295/473/202 298/474/202
f 300/475/203 296/476/203 297/472/203
f 302/477/204 299/478/204 300/479/204
f 302/477/205 303/480/205 301/481/205
f 306/482/206 303/480/206 304/483/206
f 308/484/207 305/485/207 306/482/207
f 308/486/208 309/487/208 307/488/208
f 312/489/209 309/487/209 310/490/209
f 312/489/210 313/491/211 311/492/211
f 316/493/212 313/491/212 314/494/212
f 316/493/213 317/495/213 315/496/213
f 318/497/214 295/473/214 317/498/214
f 301/499/215 309/500/215 317/501/215
f 312/502/216 304/503/216 298/504/216
f 297/472/202 296/476/202 295/473/202
f 300/475/203 299/533/203 296/476/203
f 302/477/204 301/481/204 299/478/204
f 302/477/205 304/483/205 303/480/205
f 306/482/206 305/485/206 303/480/206
f 308/484/207 307/534/207 305/485/207
f 308/486/208 310/490/208 309/487/208
f 312/489/209 311/492/209 309/487/209
f 312/489/210 314/494/210 313/491/211
f 316/493/212 315/496/212 313/491/212
f 316/493/213 318/535/213 317/495/213
f 318/497/214 298/474/214 295/473/214
f 317/501/215 295/536/218 296/537/215
f 296/537/215 299/538/215 301/499/215
f 301/499/215 303/539/215 305/540/215
f 305/540/215 307/541/218 309/500/215
f 309/500/215 311/542/215 313/543/215
f 313/543/215 315/544/215 317/501/215
f 317/501/215 296/537/215 301/499/215
f 301/499/215 305/540/215 309/500/215
f 309/500/215 313/543/215 317/501/215
f 298/504/216 318/501/216 316/544/216
f 316/544/216 314/545/219 312/502/216
f 312/502/216 310/546/216 308/547/216
f 308/547/216 306/548/216 304/503/216
f 304/503/216 302/549/219 300/550/216
f 300/550/216 297/551/216 298/504/216
f 298/504/216 316/544/216 312/502/216
f 312/502/216 308/547/216 304/503/216
f 304/503/216 300/550/216 298/504/216
